<svg width="24" height="24" viewBox="0 0 24 24" fill="none" xmlns="http://www.w3.org/2000/svg">
<path fill-rule="evenodd" clip-rule="evenodd" d="M6.6351 1H13.9932L20.2258 7.50232V20.1349C20.2258 21.7163 18.9421 23 17.3607 23H6.6351C5.05371 23 3.76999 21.7163 3.76999 20.1349V3.86511C3.76999 2.28372 5.05371 1 6.6351 1Z" fill="#FA0000"/>
<path opacity="0.302" fill-rule="evenodd" clip-rule="evenodd" d="M13.9839 1V7.4465H20.2258L13.9839 1Z" fill="white"/>
<path d="M15.8072 12.7768C15.7328 12.7209 15.6211 12.7209 15.5374 12.7582L13.6862 13.6884V13.0186C13.6862 12.5442 13.3141 12.1721 12.8397 12.1721H8.89554C8.43042 12.1721 8.04904 12.5442 8.04904 13.0186V16.3954C8.04904 16.8698 8.43044 17.2419 8.89554 17.2419H12.8397C13.3141 17.2419 13.6862 16.8698 13.6862 16.3954V15.7256L15.5374 16.6558C15.6769 16.721 15.8444 16.6651 15.9188 16.5256C15.9374 16.4884 15.9467 16.4419 15.9467 16.3954V13.0186C15.9467 12.9163 15.8909 12.8233 15.8072 12.7768ZM10.8677 15.8372C10.2444 15.8372 9.74207 15.3256 9.74207 14.7023C9.74207 14.079 10.2444 13.5767 10.8677 13.5767C11.4909 13.5767 11.9932 14.079 11.9932 14.7023C11.9932 15.3256 11.4909 15.8372 10.8677 15.8372Z" fill="white"/>
</svg>
