<svg width="24" height="24" viewBox="0 0 24 24" fill="none" xmlns="http://www.w3.org/2000/svg">
<path fill-rule="evenodd" clip-rule="evenodd" d="M6.62838 1H13.9911L20.2218 7.50365V20.1336C20.2218 21.7153 18.9452 23 17.3634 23H6.62838C5.05465 23 3.76999 21.7153 3.76999 20.1336V3.85839C3.76996 2.28466 5.05465 1 6.62838 1Z" fill="#008BF5"/>
<path opacity="0.302" fill-rule="evenodd" clip-rule="evenodd" d="M13.9831 1V7.44744H20.2218L13.9831 1Z" fill="white"/>
<path d="M14.513 12.1927C13.124 10.8037 10.8758 10.8037 9.48676 12.1927C8.09772 13.5818 8.09772 15.83 9.48676 17.219C10.8758 18.608 13.124 18.608 14.513 17.219C15.8941 15.83 15.8941 13.5818 14.513 12.1927ZM10.0649 17.1869C9.8561 17.0343 9.67141 16.8496 9.51886 16.6409C9.98455 16.2876 10.4583 15.9423 10.924 15.589C10.9882 15.6773 11.0283 15.7175 11.1167 15.7817C10.7634 16.2475 10.4181 16.7212 10.0649 17.1869ZM12.7225 15.4285C12.321 15.83 11.6707 15.83 11.2773 15.4285C10.8758 15.027 10.8758 14.3847 11.2773 13.9832C11.6707 13.5898 12.3211 13.5898 12.7225 13.9832C13.116 14.3847 13.116 15.027 12.7225 15.4285ZM13.0678 13.8226C13.0035 13.7343 12.9634 13.7022 12.8831 13.6379C13.2284 13.1642 13.5816 12.6985 13.9269 12.2248C14.1357 12.3773 14.3203 12.5701 14.4809 12.7788C14.0072 13.1241 13.5415 13.4774 13.0678 13.8226Z" fill="white"/>
</svg>
