<svg width="24" height="24" viewBox="0 0 24 24" fill="none" xmlns="http://www.w3.org/2000/svg">
<path d="M6.63193 1H13.993L20.224 7.50095V20.1381C20.224 21.7188 18.9428 23 17.3621 23H6.63193C5.05118 23 3.76999 21.7188 3.76999 20.1381V3.86195C3.76999 2.28122 5.05118 1 6.63193 1Z" fill="#0263D1"/>
<path opacity="0.302" fill-rule="evenodd" clip-rule="evenodd" d="M13.9841 1V7.44756H20.224L13.9841 1Z" fill="white"/>
<path d="M6.42731 16.6978V13.0558H7.71742C7.97543 13.0558 8.21568 13.0944 8.43811 13.1656C8.66054 13.2397 8.86221 13.3465 9.04314 13.4888C9.22404 13.6312 9.36642 13.821 9.47021 14.0583C9.574 14.2955 9.6274 14.5684 9.6274 14.8768C9.6274 15.1852 9.574 15.4581 9.47021 15.6953C9.36642 15.9326 9.22404 16.1224 9.04314 16.2647C8.86224 16.4071 8.66054 16.5139 8.43811 16.588C8.21568 16.6592 7.97546 16.6978 7.71742 16.6978H6.42731ZM7.3378 15.9059H7.60768C7.753 15.9059 7.88943 15.8881 8.01101 15.8555C8.13557 15.8199 8.24826 15.7636 8.35502 15.6894C8.46179 15.6152 8.54482 15.5085 8.60414 15.3691C8.66643 15.2327 8.69607 15.0666 8.69607 14.8768C8.69607 14.687 8.66641 14.5209 8.60414 14.3815C8.54482 14.2451 8.46179 14.1383 8.35502 14.0642C8.24826 13.9871 8.13557 13.9337 8.01101 13.8981C7.88943 13.8655 7.753 13.8477 7.60768 13.8477H7.3378V15.9059ZM11.8369 16.7393C11.2882 16.7393 10.8345 16.5613 10.4756 16.2084C10.1167 15.8555 9.93878 15.4106 9.93878 14.8768C9.93878 14.343 10.1167 13.8981 10.4756 13.5452C10.8345 13.1923 11.2882 13.0143 11.8369 13.0143C12.3766 13.0143 12.8245 13.1923 13.1833 13.5452C13.5392 13.8981 13.7172 14.343 13.7172 14.8768C13.7172 15.4106 13.5392 15.8555 13.1833 16.2084C12.8245 16.5613 12.3766 16.7393 11.8369 16.7393ZM11.1369 15.6449C11.3178 15.8466 11.5492 15.9474 11.8309 15.9474C12.1127 15.9474 12.341 15.8466 12.522 15.6449C12.7029 15.4403 12.7918 15.1852 12.7918 14.8768C12.7918 14.5684 12.7029 14.3133 12.522 14.1086C12.3411 13.907 12.1127 13.8061 11.8309 13.8061C11.5492 13.8061 11.3178 13.907 11.1369 14.1086C10.956 14.3133 10.8641 14.5684 10.8641 14.8768C10.8641 15.1852 10.956 15.4403 11.1369 15.6449ZM15.8822 16.7393C15.3513 16.7393 14.9094 16.5732 14.5594 16.247C14.2065 15.9178 14.0316 15.4611 14.0316 14.8768C14.0316 14.2955 14.2095 13.8388 14.5654 13.5096C14.9242 13.1804 15.3602 13.0143 15.8822 13.0143C16.3537 13.0143 16.7393 13.1299 17.0448 13.3642C17.3473 13.5956 17.5223 13.904 17.5667 14.2896L16.6474 14.4764C16.6088 14.2747 16.5168 14.1116 16.3745 13.99C16.2322 13.8684 16.0661 13.8061 15.8762 13.8061C15.6153 13.8061 15.3987 13.8981 15.2238 14.0849C15.0488 14.2747 14.9598 14.5357 14.9598 14.8768C14.9598 15.2178 15.0488 15.4788 15.2208 15.6657C15.3958 15.8555 15.6123 15.9474 15.8762 15.9474C16.066 15.9474 16.2291 15.894 16.3626 15.7873C16.4961 15.6805 16.5791 15.5382 16.6147 15.3602L17.5548 15.5737C17.4688 15.9415 17.279 16.2262 16.9824 16.4308C16.6889 16.6355 16.3211 16.7393 15.8822 16.7393Z" fill="white"/>
</svg>
