<svg width="24" height="24" viewBox="0 0 24 24" fill="none" xmlns="http://www.w3.org/2000/svg">
<path fill-rule="evenodd" clip-rule="evenodd" d="M6.63195 1H13.993L20.224 7.50095V20.1381C20.224 21.7188 18.9428 23 17.3621 23H6.63195C5.05119 23 3.77 21.7188 3.77 20.1381V3.86195C3.77 2.28122 5.05119 1 6.63195 1Z" fill="#EB3023"/>
<path opacity="0.302" fill-rule="evenodd" clip-rule="evenodd" d="M13.9841 1V7.44756H20.2241L13.9841 1Z" fill="white"/>
<path d="M12.516 13.2308H13.4591V14.9925C13.4591 15.1882 13.557 15.289 13.7557 15.289C13.898 15.289 14.0137 15.2 14.1027 15.0251C14.1946 14.8501 14.2421 14.6128 14.2421 14.3073C14.2421 13.7201 14.0463 13.2634 13.6608 12.9371C13.2723 12.6109 12.7651 12.4478 12.1393 12.4478C11.4305 12.4478 10.8552 12.6525 10.4133 13.0647C9.97431 13.474 9.75486 14.0078 9.75486 14.6662C9.75486 15.3483 9.97137 15.9029 10.4073 16.327C10.8433 16.7541 11.4097 16.9647 12.1067 16.9647C12.7414 16.9647 13.3761 16.7927 14.0137 16.4427L14.3399 17.4214C13.5392 17.7565 12.771 17.9226 12.0326 17.9226C11.0954 17.9226 10.3154 17.6142 9.69554 16.9973C9.07569 16.3775 8.76726 15.6004 8.76726 14.6662C8.76726 13.7557 9.08756 12.9965 9.72817 12.3945C10.3688 11.7924 11.1695 11.4929 12.1393 11.4929C13.0231 11.4929 13.7586 11.7598 14.3459 12.2936C14.9331 12.8275 15.2267 13.4977 15.2267 14.3074C15.2267 14.9005 15.0843 15.3662 14.7996 15.7042C14.5119 16.0453 14.1382 16.2144 13.6786 16.2144C13.207 16.2144 12.8837 16.0572 12.7088 15.7428C12.5308 16.0127 12.2372 16.1461 11.8279 16.1461C11.4127 16.1461 11.0776 16.0127 10.8285 15.7458C10.5764 15.4818 10.4518 15.12 10.4518 14.6662C10.4518 14.2095 10.5734 13.8506 10.8136 13.5837C11.0539 13.3168 11.3771 13.1863 11.7805 13.1863C12.1008 13.1863 12.344 13.2753 12.516 13.4591V13.2308ZM11.5373 15.1585C11.65 15.2861 11.7924 15.3483 11.9703 15.3483C12.1483 15.3483 12.2906 15.286 12.4003 15.1615C12.5071 15.0399 12.5635 14.8738 12.5635 14.6662C12.5635 14.4586 12.5071 14.2925 12.4003 14.1679C12.2906 14.0434 12.1483 13.9811 11.9703 13.9811C11.7923 13.9811 11.65 14.0463 11.5373 14.1709C11.4276 14.2984 11.3712 14.4645 11.3712 14.6662C11.3712 14.8679 11.4276 15.034 11.5373 15.1585Z" fill="white"/>
</svg>
