<svg width="24" height="24" viewBox="0 0 24 24" fill="none" xmlns="http://www.w3.org/2000/svg">
<path fill-rule="evenodd" clip-rule="evenodd" d="M6.63074 1H13.9889L20.2243 7.49923V20.1393C20.2243 21.715 18.9394 23 17.3636 23H6.63074C5.0482 23 3.76999 21.715 3.76999 20.1393V3.86075C3.76999 2.27821 5.0482 1 6.63074 1Z" fill="#0E1E31"/>
<path opacity="0.302" fill-rule="evenodd" clip-rule="evenodd" d="M13.9821 1V7.44514H20.2243L13.9821 1Z" fill="white"/>
<path d="M14.6719 16.4399L12.1831 10.901H11.8044L9.42382 16.4399H8.71371V16.8186H10.7629V16.4399H9.84313L10.4518 15.0129H12.7174L13.3531 16.4399H12.7174V16.8186H15.2806V16.4399H14.6719ZM10.6209 14.6274L11.561 12.443L12.5416 14.6274H10.6209Z" fill="white"/>
</svg>
