<svg width="24" height="24" viewBox="0 0 24 24" fill="none" xmlns="http://www.w3.org/2000/svg">
<path fill-rule="evenodd" clip-rule="evenodd" d="M6.63074 1H13.9889L20.2243 7.49923V20.1393C20.2243 21.715 18.9394 23 17.3636 23H6.63074C5.0482 23 3.76999 21.715 3.76999 20.1393V3.86075C3.76999 2.27821 5.0482 1 6.63074 1Z" fill="#008BF5"/>
<path opacity="0.302" fill-rule="evenodd" clip-rule="evenodd" d="M13.9822 1V7.44514H20.2244L13.9822 1Z" fill="white"/>
<path d="M7.45587 16.9809V12.984H8.47708V16.9809H7.45587ZM10.506 17.0283C10.107 17.0283 9.74851 16.8998 9.45094 16.6563C9.14662 16.4061 8.98429 16.1017 8.95724 15.7433L9.83643 15.4864C9.85672 15.6825 9.93111 15.8448 10.0731 15.9733C10.2152 16.1018 10.3775 16.1694 10.5533 16.1694C10.7021 16.1694 10.8238 16.1356 10.9118 16.0748C11.0064 16.0071 11.047 15.9192 11.047 15.8178C11.047 15.7299 11.0132 15.6555 10.9388 15.5946C10.8712 15.5337 10.7765 15.4796 10.6615 15.4458C10.5398 15.4052 10.4113 15.3714 10.2693 15.3308C10.1273 15.2902 9.98523 15.2429 9.84321 15.182C9.70795 15.1212 9.57945 15.0468 9.45772 14.9656C9.34276 14.8844 9.24808 14.7627 9.18045 14.6139C9.10607 14.4651 9.07224 14.2893 9.07224 14.0864C9.07224 13.7618 9.2075 13.4845 9.49155 13.2681C9.76883 13.0517 10.107 12.9367 10.4992 12.9367C10.8915 12.9367 11.2364 13.0381 11.5272 13.2275C11.818 13.4169 12.0006 13.6671 12.0683 13.9714L11.1553 14.3569C11.1147 14.1811 11.0403 14.0458 10.9253 13.9444C10.8104 13.843 10.6684 13.7956 10.4993 13.7956C10.3708 13.7956 10.2693 13.8226 10.195 13.87C10.1206 13.9241 10.0867 13.9917 10.0867 14.0796C10.0867 14.1676 10.1341 14.2352 10.2355 14.2893C10.3302 14.3366 10.4587 14.3772 10.6007 14.4042C10.7495 14.4313 10.9051 14.4719 11.0809 14.526C11.25 14.5801 11.4055 14.6545 11.5543 14.7356C11.7031 14.8235 11.8248 14.952 11.9263 15.1346C12.021 15.3172 12.0683 15.5337 12.0683 15.7839C12.0683 16.1558 11.9263 16.4534 11.6422 16.6834C11.3514 16.9133 10.9726 17.0283 10.506 17.0283ZM14.4759 17.0283C13.8739 17.0283 13.3735 16.8321 12.9812 16.4399C12.589 16.0544 12.3929 15.5675 12.3929 14.9859C12.3929 14.3975 12.589 13.9105 12.9812 13.5251C13.3735 13.1328 13.874 12.9367 14.4759 12.9367C15.0642 12.9367 15.5579 13.1328 15.9502 13.5251C16.3424 13.9105 16.5386 14.3975 16.5386 14.9859C16.5386 15.5675 16.3424 16.0544 15.9502 16.4399C15.5579 16.8322 15.0643 17.0283 14.4759 17.0283ZM13.7049 15.8245C13.9078 16.0477 14.158 16.1559 14.4691 16.1559C14.7734 16.1559 15.0304 16.0477 15.2266 15.8245C15.4227 15.6013 15.5241 15.324 15.5241 14.9859C15.5241 14.641 15.4227 14.3637 15.2266 14.1405C15.0304 13.9173 14.7734 13.8091 14.4691 13.8091C14.158 13.8091 13.9078 13.9173 13.7049 14.1405C13.5087 14.3637 13.4073 14.641 13.4073 14.9859C13.4073 15.324 13.5088 15.6013 13.7049 15.8245Z" fill="white"/>
</svg>
