<svg width="24" height="24" viewBox="0 0 24 24" fill="none" xmlns="http://www.w3.org/2000/svg">
<path fill-rule="evenodd" clip-rule="evenodd" d="M6.62838 1H13.9912L20.2218 7.50365V20.1336C20.2218 21.7153 18.9452 23 17.3634 23H6.62838C5.05466 23 3.77 21.7153 3.77 20.1336V3.85839C3.76997 2.28466 5.05466 1 6.62838 1Z" fill="#008BF5"/>
<path opacity="0.302" fill-rule="evenodd" clip-rule="evenodd" d="M13.983 1V7.44744H20.2217L13.983 1Z" fill="white"/>
<path d="M9.29402 12.273C9.99256 11.5825 10.948 11.157 11.9999 11.157C13.0517 11.157 14.0072 11.5825 14.6977 12.273C15.3962 12.9635 15.8217 13.919 15.8217 14.9628V16.673C15.8217 16.8978 15.7334 17.1066 15.5809 17.2511C15.4363 17.4036 15.2276 17.492 15.0028 17.492H14.6093V14.9949H15.0349V14.9628C15.0349 14.1358 14.6896 13.381 14.1436 12.835C13.5896 12.281 12.8348 11.9438 11.9998 11.9438C11.1648 11.9438 10.402 12.281 9.84801 12.835C9.30203 13.381 8.96479 14.1358 8.96479 14.9628V14.9949H9.39034V17.492H8.9969C8.76404 17.492 8.56332 17.4036 8.41077 17.2511C8.26626 17.1066 8.16988 16.8978 8.16988 16.673V14.9628C8.16994 13.919 8.60352 12.9635 9.29402 12.273ZM13.3568 14.5694H13.5736C13.7422 14.5694 13.8948 14.6416 13.9992 14.746C14.1116 14.8584 14.1758 15.011 14.1758 15.1796V17.3154C14.1758 17.484 14.1116 17.6365 13.9992 17.7409C13.8948 17.8533 13.7422 17.9256 13.5736 17.9256H13.3568C13.2444 17.9256 13.1481 17.8774 13.0758 17.8051C13.0035 17.7329 12.9634 17.6365 12.9634 17.5241V14.9628C12.9634 14.8584 13.0035 14.754 13.0758 14.6898C13.148 14.6175 13.2444 14.5694 13.3568 14.5694ZM10.4262 14.5694H10.6349C10.7473 14.5694 10.8437 14.6175 10.9159 14.6898C10.9882 14.754 11.0284 14.8584 11.0284 14.9628V17.5241C11.0284 17.6365 10.9882 17.7329 10.9159 17.8051C10.8437 17.8774 10.7473 17.9256 10.6349 17.9256H10.4262C10.2575 17.9256 10.105 17.8533 9.99258 17.7409C9.88017 17.6365 9.81593 17.484 9.81593 17.3154V15.1796C9.81593 15.011 9.88017 14.8584 9.99258 14.746C10.105 14.6416 10.2575 14.5694 10.4262 14.5694Z" fill="white"/>
</svg>
