<svg width="24" height="24" viewBox="0 0 24 24" fill="none" xmlns="http://www.w3.org/2000/svg">
<path fill-rule="evenodd" clip-rule="evenodd" d="M6.63405 1H13.9894L20.2232 7.49776V20.1359C20.2232 21.7191 18.9424 23 17.3647 23H6.63405C5.05084 23 3.76999 21.7191 3.76999 20.1359V3.86406C3.76996 2.28086 5.05082 1 6.63405 1Z" fill="#E5252A"/>
<path opacity="0.302" fill-rule="evenodd" clip-rule="evenodd" d="M13.9839 1V7.44828H20.2233L13.9839 1Z" fill="white"/>
<path d="M6.95291 17.4148V13.3963H8.66256C9.08585 13.3963 9.4212 13.5117 9.67407 13.7481C9.92693 13.979 10.0534 14.2924 10.0534 14.6827C10.0534 15.073 9.92693 15.3863 9.67407 15.6172C9.4212 15.8536 9.08585 15.969 8.66256 15.969H7.9809V17.4148H6.95291ZM7.9809 15.095H8.54712C8.70103 15.095 8.82198 15.062 8.90445 14.985C8.9869 14.9136 9.0309 14.8146 9.0309 14.6827C9.0309 14.5508 8.98692 14.4518 8.90445 14.3803C8.82201 14.3034 8.70106 14.2704 8.54712 14.2704H7.9809V15.095ZM10.4766 17.4148V13.3963H11.9004C12.1808 13.3963 12.4447 13.4348 12.692 13.5172C12.9394 13.5997 13.1648 13.7152 13.3627 13.8746C13.5606 14.0285 13.72 14.2374 13.8355 14.5013C13.9454 14.7651 14.0059 15.0675 14.0059 15.4083C14.0059 15.7436 13.9454 16.046 13.8355 16.3098C13.72 16.5737 13.5606 16.7826 13.3627 16.9365C13.1648 17.0959 12.9394 17.2114 12.692 17.2938C12.4447 17.3763 12.1808 17.4148 11.9004 17.4148H10.4766ZM11.4826 16.5407H11.7795C11.9389 16.5407 12.0873 16.5243 12.2248 16.4858C12.3567 16.4473 12.4831 16.3868 12.6041 16.3044C12.7195 16.2219 12.813 16.1064 12.8789 15.9525C12.9449 15.7986 12.9779 15.6172 12.9779 15.4083C12.9779 15.1939 12.9449 15.0125 12.8789 14.8586C12.813 14.7047 12.7195 14.5892 12.6041 14.5068C12.4831 14.4243 12.3567 14.3638 12.2248 14.3254C12.0873 14.2869 11.9389 14.2704 11.7795 14.2704H11.4826V16.5407ZM14.5226 17.4148V13.3963H17.3812V14.2704H15.5506V14.9135H17.0129V15.7821H15.5506V17.4148H14.5226Z" fill="white"/>
</svg>
