<svg width="24" height="24" viewBox="0 0 24 24" fill="none" xmlns="http://www.w3.org/2000/svg">
<path fill-rule="evenodd" clip-rule="evenodd" d="M6.6351 1H13.9932L20.2258 7.50232V20.1349C20.2258 21.7163 18.9421 23 17.3607 23H6.6351C5.05371 23 3.76999 21.7163 3.76999 20.1349V3.86511C3.76999 2.28372 5.05371 1 6.6351 1Z" fill="#7542ED"/>
<path opacity="0.302" fill-rule="evenodd" clip-rule="evenodd" d="M13.9839 1V7.4465H20.2258L13.9839 1Z" fill="white"/>
<path d="M8.59787 16.786C8.54205 16.7581 8.48624 16.7302 8.44905 16.6837L6.66301 14.8977C6.6165 14.8605 6.5886 14.8046 6.56069 14.7489C6.54209 14.693 6.52347 14.6372 6.52347 14.5721C6.52347 14.507 6.54206 14.4512 6.56069 14.3954C6.5886 14.3396 6.6165 14.2838 6.66301 14.2466L8.44905 12.4605C8.48627 12.414 8.54208 12.3861 8.59787 12.3582C8.65369 12.3396 8.7095 12.321 8.7746 12.321C8.90483 12.321 9.01646 12.3768 9.10019 12.4605C9.19323 12.5443 9.23973 12.6652 9.23973 12.7861C9.23973 12.8512 9.23042 12.907 9.20251 12.9722C9.18391 13.028 9.14669 13.0745 9.10019 13.121L7.64902 14.5722L9.10019 16.0233C9.14669 16.0698 9.18391 16.1164 9.20251 16.1721C9.23042 16.2373 9.23973 16.2931 9.23973 16.3582C9.23973 16.4791 9.19323 16.6001 9.10019 16.6838C9.01646 16.7675 8.90483 16.8233 8.7746 16.8233C8.7095 16.8233 8.65369 16.8046 8.59787 16.786ZM11.1374 13.7163C11.0537 13.8 10.9328 13.8465 10.8118 13.8465C10.6816 13.8465 10.5607 13.8 10.4769 13.7163C10.3932 13.6326 10.3467 13.5116 10.3467 13.3814C10.3467 12.9256 10.5234 12.5163 10.8304 12.2186C11.1281 11.9116 11.5374 11.7349 11.9932 11.7349C12.4491 11.7349 12.8676 11.9116 13.1653 12.2186C13.463 12.5163 13.649 12.9256 13.649 13.3814C13.649 13.7814 13.5095 14.1442 13.277 14.4326C13.0723 14.6838 12.7932 14.8791 12.4584 14.9721V15.7628C12.4584 15.8838 12.4119 16.0047 12.3281 16.0884C12.2444 16.1721 12.1235 16.228 11.9932 16.228C11.8723 16.228 11.7514 16.1721 11.6677 16.0884C11.5839 16.0047 11.5281 15.8838 11.5281 15.7628V14.5721C11.5281 14.4419 11.5839 14.3303 11.6677 14.2465C11.7514 14.1628 11.8723 14.107 11.9932 14.107C12.1979 14.107 12.3746 14.0233 12.5049 13.893C12.6351 13.7628 12.7188 13.5861 12.7188 13.3814C12.7188 13.1861 12.6351 13 12.5049 12.8698C12.3746 12.7396 12.1979 12.6651 11.9932 12.6651C11.7979 12.6651 11.6118 12.7396 11.4816 12.8698C11.3514 13 11.277 13.1861 11.277 13.3814C11.277 13.5116 11.2212 13.6326 11.1374 13.7163ZM12.3281 16.6186C12.4118 16.7023 12.4583 16.8232 12.4583 16.9442C12.4583 17.0744 12.4118 17.1954 12.3281 17.2791C12.2444 17.3628 12.1235 17.4093 11.9932 17.4093C11.8723 17.4093 11.7514 17.3628 11.6676 17.2791C11.5839 17.1953 11.5281 17.0744 11.5281 16.9442C11.5281 16.8233 11.5839 16.7023 11.6676 16.6186C11.7514 16.5349 11.8723 16.4791 11.9932 16.4791C12.1235 16.4791 12.2444 16.5349 12.3281 16.6186ZM15.0444 16.786C14.9793 16.7581 14.9328 16.7302 14.8863 16.6837C14.849 16.6372 14.8118 16.5907 14.7839 16.5349C14.7653 16.4791 14.756 16.414 14.756 16.3582C14.756 16.293 14.7653 16.2279 14.7839 16.1721C14.8118 16.1163 14.8491 16.0698 14.8863 16.0233L16.3374 14.5721L14.8863 13.121C14.849 13.0745 14.8118 13.0279 14.7839 12.9721C14.7653 12.9163 14.756 12.8512 14.756 12.7861C14.756 12.6652 14.8025 12.5442 14.8863 12.4605C14.97 12.3768 15.0909 12.321 15.2212 12.321C15.277 12.321 15.3421 12.3396 15.3979 12.3582C15.4537 12.3861 15.5095 12.414 15.5467 12.4605L17.3328 14.2465C17.37 14.2838 17.4072 14.3396 17.4258 14.3954C17.4537 14.4512 17.463 14.507 17.463 14.5721C17.463 14.6372 17.4537 14.693 17.4351 14.7488C17.4072 14.8046 17.3699 14.8605 17.3328 14.8977L15.5467 16.6837C15.5095 16.7302 15.4537 16.7581 15.3979 16.786C15.3421 16.8046 15.2769 16.8232 15.2212 16.8232C15.156 16.8233 15.1002 16.8046 15.0444 16.786Z" fill="white"/>
</svg>
