<svg width="24" height="24" viewBox="0 0 24 24" fill="none" xmlns="http://www.w3.org/2000/svg">
<path fill-rule="evenodd" clip-rule="evenodd" d="M6.63052 1H13.9935L20.2266 7.4997V20.1394C20.2266 21.7178 18.9445 23 17.3618 23H6.63054C5.05215 23 3.76999 21.7178 3.76999 20.1394V3.86056C3.76996 2.28216 5.05212 1 6.63052 1Z" fill="#0505DD"/>
<path fill-rule="evenodd" clip-rule="evenodd" d="M9.93114 17.2747V15.6244C10.02 15.6328 10.1215 15.6371 10.2358 15.6371C10.9298 15.6371 11.4884 15.4551 11.8523 15.1081C12.1527 14.8246 12.3178 14.3972 12.3178 13.9106C12.3178 13.4409 12.1231 13.0135 11.7761 12.7384C11.4376 12.4676 10.9425 12.3364 10.257 12.3364C9.66459 12.3364 9.16525 12.3703 8.76747 12.438C8.73784 12.4464 8.71246 12.4719 8.71246 12.5057V17.2747C8.71246 17.3128 8.7421 17.3424 8.78018 17.3424H9.86345C9.90151 17.3424 9.93114 17.3127 9.93114 17.2747ZM14.2812 15.0658C13.8369 14.9092 13.7607 14.8373 13.7607 14.7272C13.7607 14.5368 13.9807 14.5114 14.1077 14.5114C14.387 14.5114 14.6747 14.613 14.8355 14.7018C14.8567 14.7103 14.8778 14.7145 14.8948 14.7061C14.9159 14.6976 14.9286 14.6807 14.9328 14.6595L15.1275 13.9063C15.1359 13.8767 15.1233 13.8428 15.0936 13.8301C14.8905 13.7286 14.5181 13.6228 14.0738 13.6228C13.1937 13.6228 12.5801 14.1221 12.5801 14.8373C12.5716 15.1843 12.7493 15.6624 13.621 15.9544C14.0442 16.0983 14.0908 16.1702 14.0908 16.2929C14.0908 16.3479 14.0908 16.5215 13.693 16.5215C13.3926 16.5215 12.9905 16.3861 12.7874 16.2633C12.7705 16.2549 12.7493 16.2506 12.7282 16.2591C12.707 16.2676 12.6943 16.2845 12.6901 16.3057L12.4954 17.0885C12.487 17.1181 12.4997 17.1477 12.5293 17.1647C12.8255 17.3213 13.2486 17.4143 13.693 17.4143C14.6705 17.4143 15.2798 16.9531 15.2798 16.2126C15.2714 15.654 14.9667 15.3027 14.2812 15.0658ZM9.93114 14.6469V13.3266C9.99885 13.3139 10.1215 13.297 10.3162 13.297C10.8155 13.297 11.1033 13.5339 11.1033 13.9402C11.1033 14.393 10.7774 14.6638 10.2273 14.6638C10.0962 14.6638 10.0031 14.6553 9.93114 14.6469Z" fill="white"/>
<path opacity="0.302" fill-rule="evenodd" clip-rule="evenodd" d="M13.985 1V7.44895H20.2266L13.985 1Z" fill="white"/>
</svg>
