<svg width="24" height="24" viewBox="0 0 24 24" fill="none" xmlns="http://www.w3.org/2000/svg">
<path fill-rule="evenodd" clip-rule="evenodd" d="M6.63405 1H13.9894L20.2233 7.49776V20.1359C20.2233 21.7191 18.9424 23 17.3647 23H6.63405C5.05085 23 3.77 21.7191 3.77 20.1359V3.86406C3.76997 2.28086 5.05082 1 6.63405 1Z" fill="#0E1E31"/>
<path opacity="0.302" fill-rule="evenodd" clip-rule="evenodd" d="M13.9839 1V7.44828H20.2233L13.9839 1Z" fill="white"/>
<path d="M8.18979 16.3978V13.2699H7.04636V12.4068H10.3502V13.2699H9.2068V16.3978H8.18979ZM11.6421 16.3978V13.2699H10.4986V12.4068H13.8025V13.2699H12.6591V16.3978H11.6421ZM14.1048 16.3978V12.4068H16.9469V13.2699H15.1273V13.913H16.5841V14.7761H15.1273V16.3978H14.1048Z" fill="white"/>
</svg>
