<svg width="24" height="24" viewBox="0 0 24 24" fill="none" xmlns="http://www.w3.org/2000/svg">
<path fill-rule="evenodd" clip-rule="evenodd" d="M6.63406 1H13.9894L20.2233 7.49776V20.1359C20.2233 21.7191 18.9424 23 17.3647 23H6.63406C5.05086 23 3.77 21.7191 3.77 20.1359V3.86406C3.76998 2.28086 5.05083 1 6.63406 1Z" fill="#251D36"/>
<path opacity="0.302" fill-rule="evenodd" clip-rule="evenodd" d="M13.9839 1V7.44828H20.2233L13.9839 1Z" fill="white"/>
<path d="M7.92585 17.063V13.935H6.78242V13.0665H10.0863V13.935H8.94836V17.063H7.92585ZM13.8024 17.063H12.7305L11.9993 15.8371L11.2682 17.063H10.1907L11.4606 14.93L10.3502 13.0665H11.4221L11.9993 14.034L12.5711 13.0665H13.6485L12.5381 14.9355L13.8024 17.063ZM15.0448 17.063V13.935H13.9069V13.0665H17.2107V13.935H16.0673V17.063H15.0448Z" fill="white"/>
</svg>
