<svg width="24" height="24" viewBox="0 0 24 24" fill="none" xmlns="http://www.w3.org/2000/svg">
<path fill-rule="evenodd" clip-rule="evenodd" d="M6.63052 1H13.9935L20.2266 7.4997V20.1394C20.2266 21.7178 18.9445 23 17.3618 23H6.63054C5.05215 23 3.76999 21.7178 3.76999 20.1394V3.86056C3.76996 2.28216 5.05212 1 6.63052 1Z" fill="#FF6600"/>
<path opacity="0.302" fill-rule="evenodd" clip-rule="evenodd" d="M13.985 1V7.44895H20.2266L13.985 1Z" fill="white"/>
<path d="M15.6904 15.5228H15.4492C15.3688 14.3549 14.696 13.3223 13.7185 12.7553H14.5775C14.6748 13.0219 14.9287 13.2166 15.2292 13.2166C15.61 13.2166 15.9189 12.9034 15.9189 12.5226C15.9189 12.1417 15.61 11.8286 15.2292 11.8286C14.9287 11.8286 14.6748 12.0233 14.5775 12.2898H12.6902V12.0613C12.6902 11.9344 12.5844 11.8286 12.4575 11.8286H11.535C11.408 11.8286 11.3065 11.9344 11.3065 12.0613V12.2898H9.41497C9.32188 12.0232 9.06798 11.8286 8.76753 11.8286C8.38668 11.8286 8.07355 12.1417 8.07355 12.5226C8.07355 12.9034 8.38668 13.2166 8.76753 13.2166C9.06795 13.2166 9.32185 13.0219 9.41497 12.7553H10.2782C9.29647 13.3223 8.62365 14.3549 8.54749 15.5228H8.30629C8.17934 15.5228 8.07355 15.6244 8.07355 15.7513V16.678C8.07355 16.805 8.17934 16.9065 8.30629 16.9065H9.22879C9.35574 16.9065 9.45731 16.805 9.45731 16.678V15.7513C9.45731 15.6244 9.35574 15.5228 9.22879 15.5228H9.0172C9.11877 14.2321 10.0497 13.1446 11.3065 12.8484V12.9838C11.3065 13.1108 11.4081 13.2166 11.535 13.2166H12.4575C12.5845 13.2166 12.6903 13.1108 12.6903 12.9838V12.8484C13.9428 13.1446 14.8738 14.2321 14.9753 15.5228H14.768C14.6368 15.5228 14.5352 15.6244 14.5352 15.7513V16.678C14.5352 16.805 14.6368 16.9065 14.768 16.9065H15.6905C15.8174 16.9065 15.919 16.805 15.919 16.678V15.7513C15.9189 15.6244 15.8174 15.5228 15.6904 15.5228Z" fill="white"/>
</svg>
