<svg width="24" height="24" viewBox="0 0 24 24" fill="none" xmlns="http://www.w3.org/2000/svg">
<path fill-rule="evenodd" clip-rule="evenodd" d="M6.63742 1H13.9927L20.2266 7.49776V20.1359C20.2266 21.7191 18.9458 23 17.368 23H6.63742C5.05422 23 3.77336 21.7191 3.77336 20.1359V3.86406C3.77333 2.28086 5.05419 1 6.63742 1Z" fill="#FA0000"/>
<path opacity="0.302" fill-rule="evenodd" clip-rule="evenodd" d="M13.9873 1V7.44828H20.2267L13.9873 1Z" fill="white"/>
<path d="M12.0027 10.983C10.0402 10.983 8.446 12.5772 8.446 14.5397C8.446 16.5023 10.0402 18.0909 12.0027 18.0909C13.9652 18.0909 15.554 16.5022 15.554 14.5397C15.554 12.5772 13.9597 10.9885 12.0027 10.983ZM13.498 14.6497C13.4705 14.6992 13.432 14.7376 13.3825 14.7651L11.3541 15.7821C11.2276 15.8426 11.0737 15.7931 11.0132 15.6667C10.9913 15.6337 10.9857 15.5952 10.9857 15.5512V13.5227C10.9857 13.3798 11.1012 13.2699 11.2386 13.2699C11.2771 13.2699 11.3156 13.2754 11.3541 13.2974L13.3825 14.3089C13.509 14.3748 13.5584 14.5232 13.498 14.6497Z" fill="white"/>
</svg>
