<svg width="24" height="24" viewBox="0 0 24 24" fill="none" xmlns="http://www.w3.org/2000/svg">
<path d="M6.63052 1H13.9935L20.2266 7.4997V20.1394C20.2266 21.7178 18.9445 23 17.3618 23H6.63054C5.05215 23 3.76999 21.7178 3.76999 20.1394V3.86056C3.76996 2.28216 5.05212 1 6.63052 1Z" fill="#0263D1"/>
<path opacity="0.302" fill-rule="evenodd" clip-rule="evenodd" d="M13.985 1V7.44895H20.2266L13.985 1Z" fill="white"/>
<path d="M14.899 12.4465H9.09754C8.83094 12.4465 8.6109 12.2306 8.6109 11.9641C8.6109 11.6975 8.83094 11.4817 9.09754 11.4817H14.899C15.1656 11.4817 15.3814 11.6975 15.3814 11.9641C15.3814 12.2306 15.1656 12.4465 14.899 12.4465ZM12.9652 18.248H9.09754C8.83094 18.248 8.6109 18.0321 8.6109 17.7656C8.6109 17.499 8.83094 17.2832 9.09754 17.2832H12.9652C13.2318 17.2832 13.4476 17.499 13.4476 17.7656C13.4476 18.0321 13.2318 18.248 12.9652 18.248ZM14.899 16.3141H9.09754C8.83094 16.3141 8.6109 16.0983 8.6109 15.8317C8.6109 15.5652 8.83094 15.3493 9.09754 15.3493H14.899C15.1656 15.3493 15.3814 15.5652 15.3814 15.8317C15.3814 16.0983 15.1656 16.3141 14.899 16.3141ZM14.899 14.3803H9.09754C8.83094 14.3803 8.6109 14.1645 8.6109 13.8979C8.6109 13.6313 8.83094 13.4155 9.09754 13.4155H14.899C15.1656 13.4155 15.3814 13.6313 15.3814 13.8979C15.3814 14.1645 15.1656 14.3803 14.899 14.3803Z" fill="white"/>
</svg>
