<svg width="24" height="24" viewBox="0 0 24 24" fill="none" xmlns="http://www.w3.org/2000/svg">
<path fill-rule="evenodd" clip-rule="evenodd" d="M6.62838 1H13.9911L20.2218 7.50365V20.1336C20.2218 21.7153 18.9452 23 17.3634 23H6.62838C5.05465 23 3.76999 21.7153 3.76999 20.1336V3.85839C3.76996 2.28466 5.05465 1 6.62838 1Z" fill="#00733B"/>
<path opacity="0.302" fill-rule="evenodd" clip-rule="evenodd" d="M13.9831 1V7.44744H20.2218L13.9831 1Z" fill="white"/>
<path d="M10.6108 17.0183H9.54293L8.81229 15.7898L8.08162 17.0183H7.00571L8.27433 14.8825L7.15828 13.0277H8.23416L8.81226 13.9912L9.38232 13.0277H10.4582L9.35018 14.8905L10.6108 17.0183ZM10.9882 17.0183V13.0277H12.0079V16.1511H13.7422V17.0182H10.9882V17.0183ZM15.4283 17.0664C15.0268 17.0664 14.6736 16.938 14.3685 16.6891C14.0714 16.4482 13.9028 16.1431 13.8787 15.7818L14.7539 15.5248C14.778 15.7175 14.8583 15.8861 14.9948 16.0146C15.1393 16.1431 15.2999 16.2073 15.4765 16.2073C15.621 16.2073 15.7415 16.1752 15.8378 16.111C15.9261 16.0467 15.9743 15.9584 15.9743 15.854C15.9743 15.7657 15.9342 15.6935 15.8619 15.6292C15.7896 15.573 15.6933 15.5248 15.5809 15.4847C15.4685 15.4446 15.332 15.4044 15.1955 15.3723C15.0509 15.3322 14.9064 15.284 14.7699 15.2197C14.6254 15.1635 14.4969 15.0913 14.3845 15.003C14.2641 14.9226 14.1758 14.8022 14.1035 14.6497C14.0312 14.5051 13.9911 14.3285 13.9911 14.1278C13.9911 13.7986 14.1276 13.5256 14.4086 13.3088C14.6896 13.084 15.0268 12.9796 15.4203 12.9796C15.8137 12.9796 16.1589 13.0759 16.448 13.2606C16.7371 13.4533 16.9217 13.7022 16.994 14.0073L16.0787 14.3927C16.0385 14.2241 15.9582 14.0876 15.8458 13.9832C15.7334 13.8869 15.5889 13.8307 15.4203 13.8307C15.2918 13.8307 15.1954 13.8628 15.1152 13.911C15.0429 13.9592 15.0108 14.0314 15.0108 14.1198C15.0108 14.2001 15.059 14.2723 15.1553 14.3285C15.2516 14.3767 15.3801 14.4168 15.5246 14.4409C15.6692 14.465 15.8297 14.5052 15.9984 14.5614C16.175 14.6256 16.3276 14.6898 16.4801 14.7782C16.6246 14.8585 16.7451 14.9949 16.8414 15.1716C16.9458 15.3563 16.994 15.5731 16.994 15.822C16.994 16.1913 16.8494 16.4964 16.5604 16.7212C16.2713 16.946 15.894 17.0664 15.4283 17.0664Z" fill="white"/>
</svg>
