<svg width="24" height="24" viewBox="0 0 24 24" fill="none" xmlns="http://www.w3.org/2000/svg">
<path fill-rule="evenodd" clip-rule="evenodd" d="M6.63074 1H13.9889L20.2243 7.49923V20.1393C20.2243 21.715 18.9394 23 17.3636 23H6.63074C5.0482 23 3.76999 21.715 3.76999 20.1393V3.86075C3.76999 2.27821 5.0482 1 6.63074 1Z" fill="#FFB11F"/>
<path opacity="0.302" fill-rule="evenodd" clip-rule="evenodd" d="M13.9821 1V7.44514H20.2243L13.9821 1Z" fill="white"/>
<path d="M9.8296 12.4295V10.9281C9.8296 10.7658 9.7011 10.6372 9.53879 10.6372H8.72723C8.56492 10.6372 8.43642 10.7658 8.43642 10.9281V12.4295L7.9833 13.755C7.8548 14.127 7.91567 14.5395 8.14561 14.8574C8.36879 15.1752 8.74074 15.3646 9.13301 15.3646C9.52528 15.3646 9.89048 15.1752 10.1204 14.8574C10.3504 14.5395 10.4112 14.127 10.2827 13.755L9.8296 12.4295ZM9.64025 14.5124C9.41031 14.8438 8.85574 14.8438 8.61905 14.5124C8.50408 14.3501 8.47025 14.1337 8.53788 13.9444L8.68667 13.498H9.57262L9.72817 13.9444C9.78905 14.1337 9.76197 14.3501 9.64025 14.5124ZM7.33408 2.57577V3.40087C7.33408 3.56317 7.46258 3.69168 7.62489 3.69168H8.72726V4.92255H7.62489C7.46258 4.92255 7.33408 5.05106 7.33408 5.21337V5.84908C7.33408 6.01139 7.46258 6.14665 7.62489 6.14665H8.72726V7.37074H7.62489C7.46258 7.37074 7.33408 7.49925 7.33408 7.66155V8.30403C7.33408 8.46633 7.46258 8.59484 7.62489 8.59484H8.72726V9.52812C8.72726 9.69043 8.86252 9.81893 9.02482 9.81893H10.6412C10.7967 9.81893 10.932 9.69043 10.932 9.52812V8.88565C10.932 8.7301 10.7967 8.59484 10.6412 8.59484H9.53206V7.37074H10.6412C10.7967 7.37074 10.932 7.24224 10.932 7.07993V6.43746C10.932 6.27515 10.7967 6.14665 10.6412 6.14665H9.53206V4.92255H10.6412C10.7967 4.92255 10.932 4.7873 10.932 4.62499V3.98927C10.932 3.82697 10.7967 3.69171 10.6412 3.69171H9.53206V2.56902C9.53204 2.56902 7.33408 2.57577 7.33408 2.57577Z" fill="white"/>
</svg>
